<svg xmlns="http://www.w3.org/2000/svg" width="1280" height="720" viewBox="0 0 1280 720">
<defs>
<radialGradient id="bg"><stop stop-color="#43d6ff" stop-opacity=".48"/><stop offset=".52" stop-color="#10223d"/><stop offset="1" stop-color="#05050b"/></radialGradient>
<linearGradient id="metal" x1="0" y1="0" x2="1" y2="1"><stop stop-color="#fff"/><stop offset=".18" stop-color="#43d6ff"/><stop offset=".5" stop-color="#e7ff4f"/><stop offset=".82" stop-color="#44266b"/><stop offset="1" stop-color="#fff"/></linearGradient>
<filter id="glow"><feGaussianBlur stdDeviation="16" result="b"/><feMerge><feMergeNode in="b"/><feMergeNode in="SourceGraphic"/></feMerge></filter>
</defs>
<rect width="1280" height="720" fill="url(#bg)"/>
<circle cx="890" cy="105" r="250" fill="#e7ff4f" opacity=".16" filter="url(#glow)"/>
<path d="M0 555C260 470 410 650 690 550s390-40 590-120v290H0z" fill="#43d6ff" opacity=".12"/>
<g fill="#fff" opacity=".85" filter="url(#glow)"><circle cx="1100" cy="130" r="5"/><circle cx="1030" cy="265" r="3"/><circle cx="740" cy="90" r="4"/><path d="m1130 350 8 20 20 8-20 8-8 20-8-20-20-8 20-8z"/></g>
<g transform="translate(560 110)"><ellipse cx="170" cy="270" rx="155" ry="36" fill="#000" opacity=".23"/><path d="M30 210c80-8 88-126 144-150 50 62 68 136 166 147-35 68-270 86-310 3z" fill="url(#metal)"/><path d="M76 202c75-22 82-84 103-99 34 43 62 81 108 96-55 22-155 32-211 3z" fill="#e7ff4f"/></g>
<text x="72" y="92" fill="#43d6ff" font-family="Inter,Arial,sans-serif" font-size="22" font-weight="700" letter-spacing="3">PHƯƠNG TIỆN DỊCH CHUYỂN</text>
<text x="72" y="175" fill="#fff" font-family="Inter,Arial,sans-serif" font-size="58" font-weight="800">Mũ bảo hiểm không làm xẹp</text><text x="72" y="247" fill="#fff" font-family="Inter,Arial,sans-serif" font-size="58" font-weight="800">tóc mái</text>
<text x="74" y="600" fill="#fff" opacity=".68" font-family="Inter,Arial,sans-serif" font-size="24">Vật phẩm 3D · Hào quang 1</text>
<text x="1110" y="635" fill="#fff" font-family="Inter,Arial,sans-serif" font-size="54" font-weight="800">#039</text>
</svg>